<mxfile host="app.diagrams.net" modified="2021-10-18T13:17:56.276Z" agent="5.0 (Macintosh; Intel Mac OS X 10_15_7) AppleWebKit/537.36 (KHTML, like Gecko) Chrome/94.0.4606.81 Safari/537.36 Edg/94.0.992.50" etag="CS7vbVsDiNmQQ93t9aag" version="15.2.1" type="github" pages="2">
  <diagram id="R2lEEEUBdFMjLlhIrx00" name="部门成员">
    <mxGraphModel dx="2608" dy="819" grid="1" gridSize="10" guides="1" tooltips="1" connect="1" arrows="1" fold="1" page="1" pageScale="1" pageWidth="850" pageHeight="1100" math="0" shadow="0" extFonts="Permanent Marker^https://fonts.googleapis.com/css?family=Permanent+Marker">
      <root>
        <mxCell id="0" />
        <mxCell id="1" parent="0" />
        <mxCell id="nXsBDGM92rr0ssVComMT-1" value="实体关系图" style="shape=umlFrame;whiteSpace=wrap;html=1;width=120;height=30;boundedLbl=1;verticalAlign=middle;align=left;spacingLeft=5;" vertex="1" parent="1">
          <mxGeometry x="-60" y="60" width="910" height="900" as="geometry" />
        </mxCell>
        <mxCell id="C-vyLk0tnHw3VtMMgP7b-1" value="" style="edgeStyle=entityRelationEdgeStyle;endArrow=ERzeroToMany;startArrow=ERone;endFill=1;startFill=0;" parent="1" source="C-vyLk0tnHw3VtMMgP7b-24" target="C-vyLk0tnHw3VtMMgP7b-6" edge="1">
          <mxGeometry width="100" height="100" relative="1" as="geometry">
            <mxPoint x="400" y="720" as="sourcePoint" />
            <mxPoint x="500" y="620" as="targetPoint" />
          </mxGeometry>
        </mxCell>
        <mxCell id="C-vyLk0tnHw3VtMMgP7b-2" value="department_user" style="shape=table;startSize=30;container=1;collapsible=1;childLayout=tableLayout;fixedRows=1;rowLines=0;fontStyle=1;align=center;resizeLast=1;" parent="1" vertex="1">
          <mxGeometry y="650" width="360" height="270" as="geometry" />
        </mxCell>
        <mxCell id="C-vyLk0tnHw3VtMMgP7b-3" value="" style="shape=partialRectangle;collapsible=0;dropTarget=0;pointerEvents=0;fillColor=none;points=[[0,0.5],[1,0.5]];portConstraint=eastwest;top=0;left=0;right=0;bottom=1;" parent="C-vyLk0tnHw3VtMMgP7b-2" vertex="1">
          <mxGeometry y="30" width="360" height="30" as="geometry" />
        </mxCell>
        <mxCell id="C-vyLk0tnHw3VtMMgP7b-4" value="PK" style="shape=partialRectangle;overflow=hidden;connectable=0;fillColor=none;top=0;left=0;bottom=0;right=0;fontStyle=1;" parent="C-vyLk0tnHw3VtMMgP7b-3" vertex="1">
          <mxGeometry width="30" height="30" as="geometry" />
        </mxCell>
        <mxCell id="C-vyLk0tnHw3VtMMgP7b-5" value="id int NOT NULL " style="shape=partialRectangle;overflow=hidden;connectable=0;fillColor=none;top=0;left=0;bottom=0;right=0;align=left;spacingLeft=6;fontStyle=5;" parent="C-vyLk0tnHw3VtMMgP7b-3" vertex="1">
          <mxGeometry x="30" width="330" height="30" as="geometry" />
        </mxCell>
        <mxCell id="C-vyLk0tnHw3VtMMgP7b-6" value="" style="shape=partialRectangle;collapsible=0;dropTarget=0;pointerEvents=0;fillColor=none;points=[[0,0.5],[1,0.5]];portConstraint=eastwest;top=0;left=0;right=0;bottom=0;" parent="C-vyLk0tnHw3VtMMgP7b-2" vertex="1">
          <mxGeometry y="60" width="360" height="30" as="geometry" />
        </mxCell>
        <mxCell id="C-vyLk0tnHw3VtMMgP7b-7" value="FK1" style="shape=partialRectangle;overflow=hidden;connectable=0;fillColor=none;top=0;left=0;bottom=0;right=0;" parent="C-vyLk0tnHw3VtMMgP7b-6" vertex="1">
          <mxGeometry width="30" height="30" as="geometry" />
        </mxCell>
        <mxCell id="C-vyLk0tnHw3VtMMgP7b-8" value="uid int NOT NULL" style="shape=partialRectangle;overflow=hidden;connectable=0;fillColor=none;top=0;left=0;bottom=0;right=0;align=left;spacingLeft=6;" parent="C-vyLk0tnHw3VtMMgP7b-6" vertex="1">
          <mxGeometry x="30" width="330" height="30" as="geometry" />
        </mxCell>
        <mxCell id="C-vyLk0tnHw3VtMMgP7b-9" value="" style="shape=partialRectangle;collapsible=0;dropTarget=0;pointerEvents=0;fillColor=none;points=[[0,0.5],[1,0.5]];portConstraint=eastwest;top=0;left=0;right=0;bottom=0;" parent="C-vyLk0tnHw3VtMMgP7b-2" vertex="1">
          <mxGeometry y="90" width="360" height="30" as="geometry" />
        </mxCell>
        <mxCell id="C-vyLk0tnHw3VtMMgP7b-10" value="FK2" style="shape=partialRectangle;overflow=hidden;connectable=0;fillColor=none;top=0;left=0;bottom=0;right=0;" parent="C-vyLk0tnHw3VtMMgP7b-9" vertex="1">
          <mxGeometry width="30" height="30" as="geometry" />
        </mxCell>
        <mxCell id="C-vyLk0tnHw3VtMMgP7b-11" value="department_id int NOT NULL" style="shape=partialRectangle;overflow=hidden;connectable=0;fillColor=none;top=0;left=0;bottom=0;right=0;align=left;spacingLeft=6;" parent="C-vyLk0tnHw3VtMMgP7b-9" vertex="1">
          <mxGeometry x="30" width="330" height="30" as="geometry" />
        </mxCell>
        <mxCell id="Lw-cmZCCrCGT3gQhGZ3B-30" value="" style="shape=partialRectangle;collapsible=0;dropTarget=0;pointerEvents=0;fillColor=none;points=[[0,0.5],[1,0.5]];portConstraint=eastwest;top=0;left=0;right=0;bottom=0;" vertex="1" parent="C-vyLk0tnHw3VtMMgP7b-2">
          <mxGeometry y="120" width="360" height="30" as="geometry" />
        </mxCell>
        <mxCell id="Lw-cmZCCrCGT3gQhGZ3B-31" value="" style="shape=partialRectangle;overflow=hidden;connectable=0;fillColor=none;top=0;left=0;bottom=0;right=0;" vertex="1" parent="Lw-cmZCCrCGT3gQhGZ3B-30">
          <mxGeometry width="30" height="30" as="geometry" />
        </mxCell>
        <mxCell id="Lw-cmZCCrCGT3gQhGZ3B-32" value="status int NOT NULL 通用状态（0 删除，1有效）" style="shape=partialRectangle;overflow=hidden;connectable=0;fillColor=none;top=0;left=0;bottom=0;right=0;align=left;spacingLeft=6;" vertex="1" parent="Lw-cmZCCrCGT3gQhGZ3B-30">
          <mxGeometry x="30" width="330" height="30" as="geometry" />
        </mxCell>
        <mxCell id="Lw-cmZCCrCGT3gQhGZ3B-33" value="" style="shape=partialRectangle;collapsible=0;dropTarget=0;pointerEvents=0;fillColor=none;points=[[0,0.5],[1,0.5]];portConstraint=eastwest;top=0;left=0;right=0;bottom=0;" vertex="1" parent="C-vyLk0tnHw3VtMMgP7b-2">
          <mxGeometry y="150" width="360" height="30" as="geometry" />
        </mxCell>
        <mxCell id="Lw-cmZCCrCGT3gQhGZ3B-34" value="" style="shape=partialRectangle;overflow=hidden;connectable=0;fillColor=none;top=0;left=0;bottom=0;right=0;" vertex="1" parent="Lw-cmZCCrCGT3gQhGZ3B-33">
          <mxGeometry width="30" height="30" as="geometry" />
        </mxCell>
        <mxCell id="Lw-cmZCCrCGT3gQhGZ3B-35" value="creator int NOT NULL 创建者" style="shape=partialRectangle;overflow=hidden;connectable=0;fillColor=none;top=0;left=0;bottom=0;right=0;align=left;spacingLeft=6;" vertex="1" parent="Lw-cmZCCrCGT3gQhGZ3B-33">
          <mxGeometry x="30" width="330" height="30" as="geometry" />
        </mxCell>
        <mxCell id="Lw-cmZCCrCGT3gQhGZ3B-36" value="" style="shape=partialRectangle;collapsible=0;dropTarget=0;pointerEvents=0;fillColor=none;points=[[0,0.5],[1,0.5]];portConstraint=eastwest;top=0;left=0;right=0;bottom=0;" vertex="1" parent="C-vyLk0tnHw3VtMMgP7b-2">
          <mxGeometry y="180" width="360" height="30" as="geometry" />
        </mxCell>
        <mxCell id="Lw-cmZCCrCGT3gQhGZ3B-37" value="" style="shape=partialRectangle;overflow=hidden;connectable=0;fillColor=none;top=0;left=0;bottom=0;right=0;" vertex="1" parent="Lw-cmZCCrCGT3gQhGZ3B-36">
          <mxGeometry width="30" height="30" as="geometry" />
        </mxCell>
        <mxCell id="Lw-cmZCCrCGT3gQhGZ3B-38" value="operator int NULL 修改者" style="shape=partialRectangle;overflow=hidden;connectable=0;fillColor=none;top=0;left=0;bottom=0;right=0;align=left;spacingLeft=6;" vertex="1" parent="Lw-cmZCCrCGT3gQhGZ3B-36">
          <mxGeometry x="30" width="330" height="30" as="geometry" />
        </mxCell>
        <mxCell id="Lw-cmZCCrCGT3gQhGZ3B-39" value="" style="shape=partialRectangle;collapsible=0;dropTarget=0;pointerEvents=0;fillColor=none;points=[[0,0.5],[1,0.5]];portConstraint=eastwest;top=0;left=0;right=0;bottom=0;" vertex="1" parent="C-vyLk0tnHw3VtMMgP7b-2">
          <mxGeometry y="210" width="360" height="30" as="geometry" />
        </mxCell>
        <mxCell id="Lw-cmZCCrCGT3gQhGZ3B-40" value="" style="shape=partialRectangle;overflow=hidden;connectable=0;fillColor=none;top=0;left=0;bottom=0;right=0;" vertex="1" parent="Lw-cmZCCrCGT3gQhGZ3B-39">
          <mxGeometry width="30" height="30" as="geometry" />
        </mxCell>
        <mxCell id="Lw-cmZCCrCGT3gQhGZ3B-41" value="create_time datetime NOT NULL 创建时间" style="shape=partialRectangle;overflow=hidden;connectable=0;fillColor=none;top=0;left=0;bottom=0;right=0;align=left;spacingLeft=6;" vertex="1" parent="Lw-cmZCCrCGT3gQhGZ3B-39">
          <mxGeometry x="30" width="330" height="30" as="geometry" />
        </mxCell>
        <mxCell id="Lw-cmZCCrCGT3gQhGZ3B-42" value="" style="shape=partialRectangle;collapsible=0;dropTarget=0;pointerEvents=0;fillColor=none;points=[[0,0.5],[1,0.5]];portConstraint=eastwest;top=0;left=0;right=0;bottom=0;" vertex="1" parent="C-vyLk0tnHw3VtMMgP7b-2">
          <mxGeometry y="240" width="360" height="30" as="geometry" />
        </mxCell>
        <mxCell id="Lw-cmZCCrCGT3gQhGZ3B-43" value="" style="shape=partialRectangle;overflow=hidden;connectable=0;fillColor=none;top=0;left=0;bottom=0;right=0;" vertex="1" parent="Lw-cmZCCrCGT3gQhGZ3B-42">
          <mxGeometry width="30" height="30" as="geometry" />
        </mxCell>
        <mxCell id="Lw-cmZCCrCGT3gQhGZ3B-44" value="update_time datetime NULL 修改时间" style="shape=partialRectangle;overflow=hidden;connectable=0;fillColor=none;top=0;left=0;bottom=0;right=0;align=left;spacingLeft=6;" vertex="1" parent="Lw-cmZCCrCGT3gQhGZ3B-42">
          <mxGeometry x="30" width="330" height="30" as="geometry" />
        </mxCell>
        <mxCell id="C-vyLk0tnHw3VtMMgP7b-13" value="department" style="shape=table;startSize=30;container=1;collapsible=1;childLayout=tableLayout;fixedRows=1;rowLines=0;fontStyle=1;align=center;resizeLast=1;" parent="1" vertex="1">
          <mxGeometry x="440" y="590" width="360" height="330" as="geometry" />
        </mxCell>
        <mxCell id="C-vyLk0tnHw3VtMMgP7b-14" value="" style="shape=partialRectangle;collapsible=0;dropTarget=0;pointerEvents=0;fillColor=none;points=[[0,0.5],[1,0.5]];portConstraint=eastwest;top=0;left=0;right=0;bottom=1;" parent="C-vyLk0tnHw3VtMMgP7b-13" vertex="1">
          <mxGeometry y="30" width="360" height="30" as="geometry" />
        </mxCell>
        <mxCell id="C-vyLk0tnHw3VtMMgP7b-15" value="PK" style="shape=partialRectangle;overflow=hidden;connectable=0;fillColor=none;top=0;left=0;bottom=0;right=0;fontStyle=1;" parent="C-vyLk0tnHw3VtMMgP7b-14" vertex="1">
          <mxGeometry width="30" height="30" as="geometry" />
        </mxCell>
        <mxCell id="C-vyLk0tnHw3VtMMgP7b-16" value="id int NOT NULL " style="shape=partialRectangle;overflow=hidden;connectable=0;fillColor=none;top=0;left=0;bottom=0;right=0;align=left;spacingLeft=6;fontStyle=5;" parent="C-vyLk0tnHw3VtMMgP7b-14" vertex="1">
          <mxGeometry x="30" width="330" height="30" as="geometry" />
        </mxCell>
        <mxCell id="C-vyLk0tnHw3VtMMgP7b-17" value="" style="shape=partialRectangle;collapsible=0;dropTarget=0;pointerEvents=0;fillColor=none;points=[[0,0.5],[1,0.5]];portConstraint=eastwest;top=0;left=0;right=0;bottom=0;" parent="C-vyLk0tnHw3VtMMgP7b-13" vertex="1">
          <mxGeometry y="60" width="360" height="20" as="geometry" />
        </mxCell>
        <mxCell id="C-vyLk0tnHw3VtMMgP7b-18" value="" style="shape=partialRectangle;overflow=hidden;connectable=0;fillColor=none;top=0;left=0;bottom=0;right=0;" parent="C-vyLk0tnHw3VtMMgP7b-17" vertex="1">
          <mxGeometry width="30" height="20" as="geometry" />
        </mxCell>
        <mxCell id="C-vyLk0tnHw3VtMMgP7b-19" value="parent_id int NULL 父节点id" style="shape=partialRectangle;overflow=hidden;connectable=0;fillColor=none;top=0;left=0;bottom=0;right=0;align=left;spacingLeft=6;" parent="C-vyLk0tnHw3VtMMgP7b-17" vertex="1">
          <mxGeometry x="30" width="330" height="20" as="geometry" />
        </mxCell>
        <mxCell id="C-vyLk0tnHw3VtMMgP7b-20" value="" style="shape=partialRectangle;collapsible=0;dropTarget=0;pointerEvents=0;fillColor=none;points=[[0,0.5],[1,0.5]];portConstraint=eastwest;top=0;left=0;right=0;bottom=0;" parent="C-vyLk0tnHw3VtMMgP7b-13" vertex="1">
          <mxGeometry y="80" width="360" height="30" as="geometry" />
        </mxCell>
        <mxCell id="C-vyLk0tnHw3VtMMgP7b-21" value="" style="shape=partialRectangle;overflow=hidden;connectable=0;fillColor=none;top=0;left=0;bottom=0;right=0;" parent="C-vyLk0tnHw3VtMMgP7b-20" vertex="1">
          <mxGeometry width="30" height="30" as="geometry" />
        </mxCell>
        <mxCell id="C-vyLk0tnHw3VtMMgP7b-22" value="name varchar(50) NOT NULL 部门名" style="shape=partialRectangle;overflow=hidden;connectable=0;fillColor=none;top=0;left=0;bottom=0;right=0;align=left;spacingLeft=6;" parent="C-vyLk0tnHw3VtMMgP7b-20" vertex="1">
          <mxGeometry x="30" width="330" height="30" as="geometry" />
        </mxCell>
        <mxCell id="Lw-cmZCCrCGT3gQhGZ3B-7" value="" style="shape=partialRectangle;collapsible=0;dropTarget=0;pointerEvents=0;fillColor=none;points=[[0,0.5],[1,0.5]];portConstraint=eastwest;top=0;left=0;right=0;bottom=0;" vertex="1" parent="C-vyLk0tnHw3VtMMgP7b-13">
          <mxGeometry y="110" width="360" height="30" as="geometry" />
        </mxCell>
        <mxCell id="Lw-cmZCCrCGT3gQhGZ3B-8" value="" style="shape=partialRectangle;overflow=hidden;connectable=0;fillColor=none;top=0;left=0;bottom=0;right=0;" vertex="1" parent="Lw-cmZCCrCGT3gQhGZ3B-7">
          <mxGeometry width="30" height="30" as="geometry" />
        </mxCell>
        <mxCell id="Lw-cmZCCrCGT3gQhGZ3B-9" value="parents varchar(100) NULL 保存直到根节点的id列表1/2/3" style="shape=partialRectangle;overflow=hidden;connectable=0;fillColor=none;top=0;left=0;bottom=0;right=0;align=left;spacingLeft=6;" vertex="1" parent="Lw-cmZCCrCGT3gQhGZ3B-7">
          <mxGeometry x="30" width="330" height="30" as="geometry" />
        </mxCell>
        <mxCell id="Lw-cmZCCrCGT3gQhGZ3B-3" value="" style="shape=partialRectangle;collapsible=0;dropTarget=0;pointerEvents=0;fillColor=none;points=[[0,0.5],[1,0.5]];portConstraint=eastwest;top=0;left=0;right=0;bottom=0;" vertex="1" parent="C-vyLk0tnHw3VtMMgP7b-13">
          <mxGeometry y="140" width="360" height="30" as="geometry" />
        </mxCell>
        <mxCell id="Lw-cmZCCrCGT3gQhGZ3B-4" value="" style="shape=partialRectangle;overflow=hidden;connectable=0;fillColor=none;top=0;left=0;bottom=0;right=0;" vertex="1" parent="Lw-cmZCCrCGT3gQhGZ3B-3">
          <mxGeometry width="30" height="30" as="geometry" />
        </mxCell>
        <mxCell id="Lw-cmZCCrCGT3gQhGZ3B-5" value="leader int NULL 部门管理者" style="shape=partialRectangle;overflow=hidden;connectable=0;fillColor=none;top=0;left=0;bottom=0;right=0;align=left;spacingLeft=6;" vertex="1" parent="Lw-cmZCCrCGT3gQhGZ3B-3">
          <mxGeometry x="30" width="330" height="30" as="geometry" />
        </mxCell>
        <mxCell id="Lw-cmZCCrCGT3gQhGZ3B-10" value="" style="shape=partialRectangle;collapsible=0;dropTarget=0;pointerEvents=0;fillColor=none;points=[[0,0.5],[1,0.5]];portConstraint=eastwest;top=0;left=0;right=0;bottom=0;" vertex="1" parent="C-vyLk0tnHw3VtMMgP7b-13">
          <mxGeometry y="170" width="360" height="30" as="geometry" />
        </mxCell>
        <mxCell id="Lw-cmZCCrCGT3gQhGZ3B-11" value="" style="shape=partialRectangle;overflow=hidden;connectable=0;fillColor=none;top=0;left=0;bottom=0;right=0;" vertex="1" parent="Lw-cmZCCrCGT3gQhGZ3B-10">
          <mxGeometry width="30" height="30" as="geometry" />
        </mxCell>
        <mxCell id="Lw-cmZCCrCGT3gQhGZ3B-12" value="status int NOT NULL 通用状态（0 删除，1有效）" style="shape=partialRectangle;overflow=hidden;connectable=0;fillColor=none;top=0;left=0;bottom=0;right=0;align=left;spacingLeft=6;" vertex="1" parent="Lw-cmZCCrCGT3gQhGZ3B-10">
          <mxGeometry x="30" width="330" height="30" as="geometry" />
        </mxCell>
        <mxCell id="Lw-cmZCCrCGT3gQhGZ3B-13" value="" style="shape=partialRectangle;collapsible=0;dropTarget=0;pointerEvents=0;fillColor=none;points=[[0,0.5],[1,0.5]];portConstraint=eastwest;top=0;left=0;right=0;bottom=0;" vertex="1" parent="C-vyLk0tnHw3VtMMgP7b-13">
          <mxGeometry y="200" width="360" height="30" as="geometry" />
        </mxCell>
        <mxCell id="Lw-cmZCCrCGT3gQhGZ3B-14" value="" style="shape=partialRectangle;overflow=hidden;connectable=0;fillColor=none;top=0;left=0;bottom=0;right=0;" vertex="1" parent="Lw-cmZCCrCGT3gQhGZ3B-13">
          <mxGeometry width="30" height="30" as="geometry" />
        </mxCell>
        <mxCell id="Lw-cmZCCrCGT3gQhGZ3B-15" value="creator int NOT NULL 创建者" style="shape=partialRectangle;overflow=hidden;connectable=0;fillColor=none;top=0;left=0;bottom=0;right=0;align=left;spacingLeft=6;" vertex="1" parent="Lw-cmZCCrCGT3gQhGZ3B-13">
          <mxGeometry x="30" width="330" height="30" as="geometry" />
        </mxCell>
        <mxCell id="Lw-cmZCCrCGT3gQhGZ3B-16" value="" style="shape=partialRectangle;collapsible=0;dropTarget=0;pointerEvents=0;fillColor=none;points=[[0,0.5],[1,0.5]];portConstraint=eastwest;top=0;left=0;right=0;bottom=0;" vertex="1" parent="C-vyLk0tnHw3VtMMgP7b-13">
          <mxGeometry y="230" width="360" height="30" as="geometry" />
        </mxCell>
        <mxCell id="Lw-cmZCCrCGT3gQhGZ3B-17" value="" style="shape=partialRectangle;overflow=hidden;connectable=0;fillColor=none;top=0;left=0;bottom=0;right=0;" vertex="1" parent="Lw-cmZCCrCGT3gQhGZ3B-16">
          <mxGeometry width="30" height="30" as="geometry" />
        </mxCell>
        <mxCell id="Lw-cmZCCrCGT3gQhGZ3B-18" value="operator int NULL 修改者" style="shape=partialRectangle;overflow=hidden;connectable=0;fillColor=none;top=0;left=0;bottom=0;right=0;align=left;spacingLeft=6;" vertex="1" parent="Lw-cmZCCrCGT3gQhGZ3B-16">
          <mxGeometry x="30" width="330" height="30" as="geometry" />
        </mxCell>
        <mxCell id="Lw-cmZCCrCGT3gQhGZ3B-19" value="" style="shape=partialRectangle;collapsible=0;dropTarget=0;pointerEvents=0;fillColor=none;points=[[0,0.5],[1,0.5]];portConstraint=eastwest;top=0;left=0;right=0;bottom=0;" vertex="1" parent="C-vyLk0tnHw3VtMMgP7b-13">
          <mxGeometry y="260" width="360" height="30" as="geometry" />
        </mxCell>
        <mxCell id="Lw-cmZCCrCGT3gQhGZ3B-20" value="" style="shape=partialRectangle;overflow=hidden;connectable=0;fillColor=none;top=0;left=0;bottom=0;right=0;" vertex="1" parent="Lw-cmZCCrCGT3gQhGZ3B-19">
          <mxGeometry width="30" height="30" as="geometry" />
        </mxCell>
        <mxCell id="Lw-cmZCCrCGT3gQhGZ3B-21" value="create_time datetime NOT NULL 创建时间" style="shape=partialRectangle;overflow=hidden;connectable=0;fillColor=none;top=0;left=0;bottom=0;right=0;align=left;spacingLeft=6;" vertex="1" parent="Lw-cmZCCrCGT3gQhGZ3B-19">
          <mxGeometry x="30" width="330" height="30" as="geometry" />
        </mxCell>
        <mxCell id="Lw-cmZCCrCGT3gQhGZ3B-22" value="" style="shape=partialRectangle;collapsible=0;dropTarget=0;pointerEvents=0;fillColor=none;points=[[0,0.5],[1,0.5]];portConstraint=eastwest;top=0;left=0;right=0;bottom=0;" vertex="1" parent="C-vyLk0tnHw3VtMMgP7b-13">
          <mxGeometry y="290" width="360" height="30" as="geometry" />
        </mxCell>
        <mxCell id="Lw-cmZCCrCGT3gQhGZ3B-23" value="" style="shape=partialRectangle;overflow=hidden;connectable=0;fillColor=none;top=0;left=0;bottom=0;right=0;" vertex="1" parent="Lw-cmZCCrCGT3gQhGZ3B-22">
          <mxGeometry width="30" height="30" as="geometry" />
        </mxCell>
        <mxCell id="Lw-cmZCCrCGT3gQhGZ3B-24" value="update_time datetime NULL 修改时间" style="shape=partialRectangle;overflow=hidden;connectable=0;fillColor=none;top=0;left=0;bottom=0;right=0;align=left;spacingLeft=6;" vertex="1" parent="Lw-cmZCCrCGT3gQhGZ3B-22">
          <mxGeometry x="30" width="330" height="30" as="geometry" />
        </mxCell>
        <mxCell id="C-vyLk0tnHw3VtMMgP7b-23" value="User" style="shape=table;startSize=30;container=1;collapsible=1;childLayout=tableLayout;fixedRows=1;rowLines=0;fontStyle=1;align=center;resizeLast=1;" parent="1" vertex="1">
          <mxGeometry x="510" y="160" width="250" height="100" as="geometry" />
        </mxCell>
        <mxCell id="C-vyLk0tnHw3VtMMgP7b-24" value="" style="shape=partialRectangle;collapsible=0;dropTarget=0;pointerEvents=0;fillColor=none;points=[[0,0.5],[1,0.5]];portConstraint=eastwest;top=0;left=0;right=0;bottom=1;" parent="C-vyLk0tnHw3VtMMgP7b-23" vertex="1">
          <mxGeometry y="30" width="250" height="30" as="geometry" />
        </mxCell>
        <mxCell id="C-vyLk0tnHw3VtMMgP7b-25" value="PK" style="shape=partialRectangle;overflow=hidden;connectable=0;fillColor=none;top=0;left=0;bottom=0;right=0;fontStyle=1;" parent="C-vyLk0tnHw3VtMMgP7b-24" vertex="1">
          <mxGeometry width="30" height="30" as="geometry" />
        </mxCell>
        <mxCell id="C-vyLk0tnHw3VtMMgP7b-26" value="id int NOT NULL " style="shape=partialRectangle;overflow=hidden;connectable=0;fillColor=none;top=0;left=0;bottom=0;right=0;align=left;spacingLeft=6;fontStyle=5;" parent="C-vyLk0tnHw3VtMMgP7b-24" vertex="1">
          <mxGeometry x="30" width="220" height="30" as="geometry" />
        </mxCell>
        <mxCell id="C-vyLk0tnHw3VtMMgP7b-27" value="" style="shape=partialRectangle;collapsible=0;dropTarget=0;pointerEvents=0;fillColor=none;points=[[0,0.5],[1,0.5]];portConstraint=eastwest;top=0;left=0;right=0;bottom=0;" parent="C-vyLk0tnHw3VtMMgP7b-23" vertex="1">
          <mxGeometry y="60" width="250" height="30" as="geometry" />
        </mxCell>
        <mxCell id="C-vyLk0tnHw3VtMMgP7b-28" value="" style="shape=partialRectangle;overflow=hidden;connectable=0;fillColor=none;top=0;left=0;bottom=0;right=0;" parent="C-vyLk0tnHw3VtMMgP7b-27" vertex="1">
          <mxGeometry width="30" height="30" as="geometry" />
        </mxCell>
        <mxCell id="C-vyLk0tnHw3VtMMgP7b-29" value="user_name char(50) NOT NULL" style="shape=partialRectangle;overflow=hidden;connectable=0;fillColor=none;top=0;left=0;bottom=0;right=0;align=left;spacingLeft=6;" parent="C-vyLk0tnHw3VtMMgP7b-27" vertex="1">
          <mxGeometry x="30" width="220" height="30" as="geometry" />
        </mxCell>
        <mxCell id="Lw-cmZCCrCGT3gQhGZ3B-2" value="" style="edgeStyle=entityRelationEdgeStyle;fontSize=12;html=1;endArrow=ERzeroToMany;startArrow=ERzeroToOne;" edge="1" parent="1" source="C-vyLk0tnHw3VtMMgP7b-14" target="C-vyLk0tnHw3VtMMgP7b-9">
          <mxGeometry width="100" height="100" relative="1" as="geometry">
            <mxPoint x="820" y="310" as="sourcePoint" />
            <mxPoint x="820" y="200" as="targetPoint" />
          </mxGeometry>
        </mxCell>
        <mxCell id="Lw-cmZCCrCGT3gQhGZ3B-6" value="" style="edgeStyle=entityRelationEdgeStyle;fontSize=12;html=1;endArrow=ERzeroToMany;startArrow=ERmandOne;" edge="1" parent="1" source="C-vyLk0tnHw3VtMMgP7b-24" target="Lw-cmZCCrCGT3gQhGZ3B-3">
          <mxGeometry width="100" height="100" relative="1" as="geometry">
            <mxPoint x="250" y="440" as="sourcePoint" />
            <mxPoint x="350" y="340" as="targetPoint" />
          </mxGeometry>
        </mxCell>
        <mxCell id="Lw-cmZCCrCGT3gQhGZ3B-51" value="account_user" style="shape=table;startSize=30;container=1;collapsible=1;childLayout=tableLayout;fixedRows=1;rowLines=0;fontStyle=1;align=center;resizeLast=1;" vertex="1" parent="1">
          <mxGeometry y="130" width="360" height="430" as="geometry" />
        </mxCell>
        <mxCell id="Lw-cmZCCrCGT3gQhGZ3B-52" value="" style="shape=partialRectangle;collapsible=0;dropTarget=0;pointerEvents=0;fillColor=none;points=[[0,0.5],[1,0.5]];portConstraint=eastwest;top=0;left=0;right=0;bottom=1;" vertex="1" parent="Lw-cmZCCrCGT3gQhGZ3B-51">
          <mxGeometry y="30" width="360" height="30" as="geometry" />
        </mxCell>
        <mxCell id="Lw-cmZCCrCGT3gQhGZ3B-53" value="PK" style="shape=partialRectangle;overflow=hidden;connectable=0;fillColor=none;top=0;left=0;bottom=0;right=0;fontStyle=1;" vertex="1" parent="Lw-cmZCCrCGT3gQhGZ3B-52">
          <mxGeometry width="30" height="30" as="geometry" />
        </mxCell>
        <mxCell id="Lw-cmZCCrCGT3gQhGZ3B-54" value="id int NOT NULL " style="shape=partialRectangle;overflow=hidden;connectable=0;fillColor=none;top=0;left=0;bottom=0;right=0;align=left;spacingLeft=6;fontStyle=5;" vertex="1" parent="Lw-cmZCCrCGT3gQhGZ3B-52">
          <mxGeometry x="30" width="330" height="30" as="geometry" />
        </mxCell>
        <mxCell id="Lw-cmZCCrCGT3gQhGZ3B-60" value="" style="shape=partialRectangle;collapsible=0;dropTarget=0;pointerEvents=0;fillColor=none;points=[[0,0.5],[1,0.5]];portConstraint=eastwest;top=0;left=0;right=0;bottom=0;" vertex="1" parent="Lw-cmZCCrCGT3gQhGZ3B-51">
          <mxGeometry y="60" width="360" height="30" as="geometry" />
        </mxCell>
        <mxCell id="Lw-cmZCCrCGT3gQhGZ3B-61" value="" style="shape=partialRectangle;overflow=hidden;connectable=0;fillColor=none;top=0;left=0;bottom=0;right=0;" vertex="1" parent="Lw-cmZCCrCGT3gQhGZ3B-60">
          <mxGeometry width="30" height="30" as="geometry" />
        </mxCell>
        <mxCell id="Lw-cmZCCrCGT3gQhGZ3B-62" value="uid int NOT NULL 组织下关联用户id" style="shape=partialRectangle;overflow=hidden;connectable=0;fillColor=#dae8fc;top=0;left=0;bottom=0;right=0;align=left;spacingLeft=6;strokeColor=#6c8ebf;" vertex="1" parent="Lw-cmZCCrCGT3gQhGZ3B-60">
          <mxGeometry x="30" width="330" height="30" as="geometry" />
        </mxCell>
        <mxCell id="Lw-cmZCCrCGT3gQhGZ3B-55" value="" style="shape=partialRectangle;collapsible=0;dropTarget=0;pointerEvents=0;fillColor=none;points=[[0,0.5],[1,0.5]];portConstraint=eastwest;top=0;left=0;right=0;bottom=0;" vertex="1" parent="Lw-cmZCCrCGT3gQhGZ3B-51">
          <mxGeometry y="90" width="360" height="30" as="geometry" />
        </mxCell>
        <mxCell id="Lw-cmZCCrCGT3gQhGZ3B-56" value="" style="shape=partialRectangle;overflow=hidden;connectable=0;fillColor=none;top=0;left=0;bottom=0;right=0;" vertex="1" parent="Lw-cmZCCrCGT3gQhGZ3B-55">
          <mxGeometry width="30" height="30" as="geometry" />
        </mxCell>
        <mxCell id="Lw-cmZCCrCGT3gQhGZ3B-57" value="user_name char(50) NOT NULL 组织下的用户名" style="shape=partialRectangle;overflow=hidden;connectable=0;fillColor=#dae8fc;top=0;left=0;bottom=0;right=0;align=left;spacingLeft=6;strokeColor=#6c8ebf;" vertex="1" parent="Lw-cmZCCrCGT3gQhGZ3B-55">
          <mxGeometry x="30" width="330" height="30" as="geometry" />
        </mxCell>
        <mxCell id="Lw-cmZCCrCGT3gQhGZ3B-63" value="" style="shape=partialRectangle;collapsible=0;dropTarget=0;pointerEvents=0;fillColor=none;points=[[0,0.5],[1,0.5]];portConstraint=eastwest;top=0;left=0;right=0;bottom=0;" vertex="1" parent="Lw-cmZCCrCGT3gQhGZ3B-51">
          <mxGeometry y="120" width="360" height="30" as="geometry" />
        </mxCell>
        <mxCell id="Lw-cmZCCrCGT3gQhGZ3B-64" value="" style="shape=partialRectangle;overflow=hidden;connectable=0;fillColor=none;top=0;left=0;bottom=0;right=0;" vertex="1" parent="Lw-cmZCCrCGT3gQhGZ3B-63">
          <mxGeometry width="30" height="30" as="geometry" />
        </mxCell>
        <mxCell id="Lw-cmZCCrCGT3gQhGZ3B-65" value="gender int NOT NULL 性别" style="shape=partialRectangle;overflow=hidden;connectable=0;fillColor=#dae8fc;top=0;left=0;bottom=0;right=0;align=left;spacingLeft=6;strokeColor=#6c8ebf;" vertex="1" parent="Lw-cmZCCrCGT3gQhGZ3B-63">
          <mxGeometry x="30" width="330" height="30" as="geometry" />
        </mxCell>
        <mxCell id="Lw-cmZCCrCGT3gQhGZ3B-66" value="" style="shape=partialRectangle;collapsible=0;dropTarget=0;pointerEvents=0;fillColor=none;points=[[0,0.5],[1,0.5]];portConstraint=eastwest;top=0;left=0;right=0;bottom=0;" vertex="1" parent="Lw-cmZCCrCGT3gQhGZ3B-51">
          <mxGeometry y="150" width="360" height="30" as="geometry" />
        </mxCell>
        <mxCell id="Lw-cmZCCrCGT3gQhGZ3B-67" value="" style="shape=partialRectangle;overflow=hidden;connectable=0;fillColor=none;top=0;left=0;bottom=0;right=0;" vertex="1" parent="Lw-cmZCCrCGT3gQhGZ3B-66">
          <mxGeometry width="30" height="30" as="geometry" />
        </mxCell>
        <mxCell id="Lw-cmZCCrCGT3gQhGZ3B-68" value="nation varchar(50) NULL 民族" style="shape=partialRectangle;overflow=hidden;connectable=0;fillColor=#dae8fc;top=0;left=0;bottom=0;right=0;align=left;spacingLeft=6;strokeColor=#6c8ebf;" vertex="1" parent="Lw-cmZCCrCGT3gQhGZ3B-66">
          <mxGeometry x="30" width="330" height="30" as="geometry" />
        </mxCell>
        <mxCell id="Lw-cmZCCrCGT3gQhGZ3B-69" value="" style="shape=partialRectangle;collapsible=0;dropTarget=0;pointerEvents=0;fillColor=none;points=[[0,0.5],[1,0.5]];portConstraint=eastwest;top=0;left=0;right=0;bottom=0;" vertex="1" parent="Lw-cmZCCrCGT3gQhGZ3B-51">
          <mxGeometry y="180" width="360" height="30" as="geometry" />
        </mxCell>
        <mxCell id="Lw-cmZCCrCGT3gQhGZ3B-70" value="" style="shape=partialRectangle;overflow=hidden;connectable=0;fillColor=none;top=0;left=0;bottom=0;right=0;" vertex="1" parent="Lw-cmZCCrCGT3gQhGZ3B-69">
          <mxGeometry width="30" height="30" as="geometry" />
        </mxCell>
        <mxCell id="Lw-cmZCCrCGT3gQhGZ3B-71" value="city varchar(50) NULL 籍贯" style="shape=partialRectangle;overflow=hidden;connectable=0;fillColor=#dae8fc;top=0;left=0;bottom=0;right=0;align=left;spacingLeft=6;strokeColor=#6c8ebf;" vertex="1" parent="Lw-cmZCCrCGT3gQhGZ3B-69">
          <mxGeometry x="30" width="330" height="30" as="geometry" />
        </mxCell>
        <mxCell id="Lw-cmZCCrCGT3gQhGZ3B-72" value="" style="shape=partialRectangle;collapsible=0;dropTarget=0;pointerEvents=0;fillColor=none;points=[[0,0.5],[1,0.5]];portConstraint=eastwest;top=0;left=0;right=0;bottom=0;" vertex="1" parent="Lw-cmZCCrCGT3gQhGZ3B-51">
          <mxGeometry y="210" width="360" height="30" as="geometry" />
        </mxCell>
        <mxCell id="Lw-cmZCCrCGT3gQhGZ3B-73" value="" style="shape=partialRectangle;overflow=hidden;connectable=0;fillColor=none;top=0;left=0;bottom=0;right=0;" vertex="1" parent="Lw-cmZCCrCGT3gQhGZ3B-72">
          <mxGeometry width="30" height="30" as="geometry" />
        </mxCell>
        <mxCell id="Lw-cmZCCrCGT3gQhGZ3B-74" value="station varchar(100) NULL 办公地址" style="shape=partialRectangle;overflow=hidden;connectable=0;fillColor=#dae8fc;top=0;left=0;bottom=0;right=0;align=left;spacingLeft=6;strokeColor=#6c8ebf;" vertex="1" parent="Lw-cmZCCrCGT3gQhGZ3B-72">
          <mxGeometry x="30" width="330" height="30" as="geometry" />
        </mxCell>
        <mxCell id="Lw-cmZCCrCGT3gQhGZ3B-75" value="" style="shape=partialRectangle;collapsible=0;dropTarget=0;pointerEvents=0;fillColor=none;points=[[0,0.5],[1,0.5]];portConstraint=eastwest;top=0;left=0;right=0;bottom=0;" vertex="1" parent="Lw-cmZCCrCGT3gQhGZ3B-51">
          <mxGeometry y="240" width="360" height="30" as="geometry" />
        </mxCell>
        <mxCell id="Lw-cmZCCrCGT3gQhGZ3B-76" value="" style="shape=partialRectangle;overflow=hidden;connectable=0;fillColor=none;top=0;left=0;bottom=0;right=0;" vertex="1" parent="Lw-cmZCCrCGT3gQhGZ3B-75">
          <mxGeometry width="30" height="30" as="geometry" />
        </mxCell>
        <mxCell id="Lw-cmZCCrCGT3gQhGZ3B-77" value="birthday date NULL 生日" style="shape=partialRectangle;overflow=hidden;connectable=0;fillColor=#dae8fc;top=0;left=0;bottom=0;right=0;align=left;spacingLeft=6;strokeColor=#6c8ebf;" vertex="1" parent="Lw-cmZCCrCGT3gQhGZ3B-75">
          <mxGeometry x="30" width="330" height="30" as="geometry" />
        </mxCell>
        <mxCell id="Lw-cmZCCrCGT3gQhGZ3B-78" value="" style="shape=partialRectangle;collapsible=0;dropTarget=0;pointerEvents=0;fillColor=none;points=[[0,0.5],[1,0.5]];portConstraint=eastwest;top=0;left=0;right=0;bottom=0;" vertex="1" parent="Lw-cmZCCrCGT3gQhGZ3B-51">
          <mxGeometry y="270" width="360" height="30" as="geometry" />
        </mxCell>
        <mxCell id="Lw-cmZCCrCGT3gQhGZ3B-79" value="" style="shape=partialRectangle;overflow=hidden;connectable=0;fillColor=none;top=0;left=0;bottom=0;right=0;" vertex="1" parent="Lw-cmZCCrCGT3gQhGZ3B-78">
          <mxGeometry width="30" height="30" as="geometry" />
        </mxCell>
        <mxCell id="Lw-cmZCCrCGT3gQhGZ3B-80" value="employee_number varchar(50) NULL 工号" style="shape=partialRectangle;overflow=hidden;connectable=0;fillColor=#dae8fc;top=0;left=0;bottom=0;right=0;align=left;spacingLeft=6;strokeColor=#6c8ebf;" vertex="1" parent="Lw-cmZCCrCGT3gQhGZ3B-78">
          <mxGeometry x="30" width="330" height="30" as="geometry" />
        </mxCell>
        <mxCell id="Lw-cmZCCrCGT3gQhGZ3B-81" value="" style="shape=partialRectangle;collapsible=0;dropTarget=0;pointerEvents=0;fillColor=none;points=[[0,0.5],[1,0.5]];portConstraint=eastwest;top=0;left=0;right=0;bottom=0;" vertex="1" parent="Lw-cmZCCrCGT3gQhGZ3B-51">
          <mxGeometry y="300" width="360" height="30" as="geometry" />
        </mxCell>
        <mxCell id="Lw-cmZCCrCGT3gQhGZ3B-82" value="" style="shape=partialRectangle;overflow=hidden;connectable=0;fillColor=none;top=0;left=0;bottom=0;right=0;" vertex="1" parent="Lw-cmZCCrCGT3gQhGZ3B-81">
          <mxGeometry width="30" height="30" as="geometry" />
        </mxCell>
        <mxCell id="Lw-cmZCCrCGT3gQhGZ3B-83" value="id_card varchar(50) NULL 证件号码" style="shape=partialRectangle;overflow=hidden;connectable=0;fillColor=#dae8fc;top=0;left=0;bottom=0;right=0;align=left;spacingLeft=6;strokeColor=#6c8ebf;" vertex="1" parent="Lw-cmZCCrCGT3gQhGZ3B-81">
          <mxGeometry x="30" width="330" height="30" as="geometry" />
        </mxCell>
        <mxCell id="Lw-cmZCCrCGT3gQhGZ3B-84" value="" style="shape=partialRectangle;collapsible=0;dropTarget=0;pointerEvents=0;fillColor=none;points=[[0,0.5],[1,0.5]];portConstraint=eastwest;top=0;left=0;right=0;bottom=0;" vertex="1" parent="Lw-cmZCCrCGT3gQhGZ3B-51">
          <mxGeometry y="330" width="360" height="30" as="geometry" />
        </mxCell>
        <mxCell id="Lw-cmZCCrCGT3gQhGZ3B-85" value="" style="shape=partialRectangle;overflow=hidden;connectable=0;fillColor=none;top=0;left=0;bottom=0;right=0;" vertex="1" parent="Lw-cmZCCrCGT3gQhGZ3B-84">
          <mxGeometry width="30" height="30" as="geometry" />
        </mxCell>
        <mxCell id="Lw-cmZCCrCGT3gQhGZ3B-86" value="job_title varchar(50) NULL 职位" style="shape=partialRectangle;overflow=hidden;connectable=0;fillColor=#dae8fc;top=0;left=0;bottom=0;right=0;align=left;spacingLeft=6;strokeColor=#6c8ebf;" vertex="1" parent="Lw-cmZCCrCGT3gQhGZ3B-84">
          <mxGeometry x="30" width="330" height="30" as="geometry" />
        </mxCell>
        <mxCell id="Lw-cmZCCrCGT3gQhGZ3B-87" value="" style="shape=partialRectangle;collapsible=0;dropTarget=0;pointerEvents=0;fillColor=none;points=[[0,0.5],[1,0.5]];portConstraint=eastwest;top=0;left=0;right=0;bottom=0;" vertex="1" parent="Lw-cmZCCrCGT3gQhGZ3B-51">
          <mxGeometry y="360" width="360" height="30" as="geometry" />
        </mxCell>
        <mxCell id="Lw-cmZCCrCGT3gQhGZ3B-88" value="" style="shape=partialRectangle;overflow=hidden;connectable=0;fillColor=none;top=0;left=0;bottom=0;right=0;" vertex="1" parent="Lw-cmZCCrCGT3gQhGZ3B-87">
          <mxGeometry width="30" height="30" as="geometry" />
        </mxCell>
        <mxCell id="Lw-cmZCCrCGT3gQhGZ3B-89" value="contact varchar(50) NULL 联系方式" style="shape=partialRectangle;overflow=hidden;connectable=0;fillColor=#dae8fc;top=0;left=0;bottom=0;right=0;align=left;spacingLeft=6;strokeColor=#6c8ebf;" vertex="1" parent="Lw-cmZCCrCGT3gQhGZ3B-87">
          <mxGeometry x="30" width="330" height="30" as="geometry" />
        </mxCell>
        <mxCell id="Lw-cmZCCrCGT3gQhGZ3B-90" value="" style="shape=partialRectangle;collapsible=0;dropTarget=0;pointerEvents=0;fillColor=none;points=[[0,0.5],[1,0.5]];portConstraint=eastwest;top=0;left=0;right=0;bottom=0;" vertex="1" parent="Lw-cmZCCrCGT3gQhGZ3B-51">
          <mxGeometry y="390" width="360" height="30" as="geometry" />
        </mxCell>
        <mxCell id="Lw-cmZCCrCGT3gQhGZ3B-91" value="" style="shape=partialRectangle;overflow=hidden;connectable=0;fillColor=none;top=0;left=0;bottom=0;right=0;" vertex="1" parent="Lw-cmZCCrCGT3gQhGZ3B-90">
          <mxGeometry width="30" height="30" as="geometry" />
        </mxCell>
        <mxCell id="Lw-cmZCCrCGT3gQhGZ3B-92" value="...." style="shape=partialRectangle;overflow=hidden;connectable=0;top=0;left=0;bottom=0;right=0;align=left;spacingLeft=6;" vertex="1" parent="Lw-cmZCCrCGT3gQhGZ3B-90">
          <mxGeometry x="30" width="330" height="30" as="geometry" />
        </mxCell>
        <mxCell id="Lw-cmZCCrCGT3gQhGZ3B-59" value="" style="edgeStyle=entityRelationEdgeStyle;fontSize=12;html=1;endArrow=ERzeroToMany;startArrow=ERzeroToOne;" edge="1" parent="1" source="C-vyLk0tnHw3VtMMgP7b-24" target="Lw-cmZCCrCGT3gQhGZ3B-60">
          <mxGeometry width="100" height="100" relative="1" as="geometry">
            <mxPoint x="-120" y="620" as="sourcePoint" />
            <mxPoint x="-20" y="520" as="targetPoint" />
          </mxGeometry>
        </mxCell>
      </root>
    </mxGraphModel>
  </diagram>
  <diagram id="J_4_rdJMKayfC9_2rq-0" name="添加账号流程">
    <mxGraphModel dx="1758" dy="819" grid="1" gridSize="10" guides="1" tooltips="1" connect="1" arrows="1" fold="1" page="1" pageScale="1" pageWidth="1169" pageHeight="827" math="0" shadow="0">
      <root>
        <mxCell id="bp6A0f7yTUswZNlAv2UM-0" />
        <mxCell id="bp6A0f7yTUswZNlAv2UM-1" parent="bp6A0f7yTUswZNlAv2UM-0" />
        <mxCell id="bp6A0f7yTUswZNlAv2UM-47" value="添加账号流程" style="shape=umlFrame;whiteSpace=wrap;html=1;width=120;height=30;boundedLbl=1;verticalAlign=middle;align=left;spacingLeft=5;" vertex="1" parent="bp6A0f7yTUswZNlAv2UM-1">
          <mxGeometry x="290" y="20" width="730" height="940" as="geometry" />
        </mxCell>
        <mxCell id="bp6A0f7yTUswZNlAv2UM-10" value="" style="edgeStyle=orthogonalEdgeStyle;rounded=0;orthogonalLoop=1;jettySize=auto;html=1;" edge="1" parent="bp6A0f7yTUswZNlAv2UM-1" source="bp6A0f7yTUswZNlAv2UM-4" target="bp6A0f7yTUswZNlAv2UM-9">
          <mxGeometry relative="1" as="geometry" />
        </mxCell>
        <mxCell id="bp6A0f7yTUswZNlAv2UM-4" value="开始" style="rounded=1;whiteSpace=wrap;html=1;" vertex="1" parent="bp6A0f7yTUswZNlAv2UM-1">
          <mxGeometry x="510" y="70" width="120" height="60" as="geometry" />
        </mxCell>
        <mxCell id="bp6A0f7yTUswZNlAv2UM-13" value="" style="edgeStyle=orthogonalEdgeStyle;rounded=0;orthogonalLoop=1;jettySize=auto;html=1;" edge="1" parent="bp6A0f7yTUswZNlAv2UM-1" source="bp6A0f7yTUswZNlAv2UM-9" target="bp6A0f7yTUswZNlAv2UM-12">
          <mxGeometry relative="1" as="geometry" />
        </mxCell>
        <mxCell id="bp6A0f7yTUswZNlAv2UM-15" value="是" style="edgeLabel;html=1;align=center;verticalAlign=middle;resizable=0;points=[];" vertex="1" connectable="0" parent="bp6A0f7yTUswZNlAv2UM-13">
          <mxGeometry x="-0.1" y="-1" relative="1" as="geometry">
            <mxPoint as="offset" />
          </mxGeometry>
        </mxCell>
        <mxCell id="bp6A0f7yTUswZNlAv2UM-20" style="edgeStyle=orthogonalEdgeStyle;rounded=0;orthogonalLoop=1;jettySize=auto;html=1;entryX=0;entryY=0.5;entryDx=0;entryDy=0;" edge="1" parent="bp6A0f7yTUswZNlAv2UM-1" source="bp6A0f7yTUswZNlAv2UM-9" target="bp6A0f7yTUswZNlAv2UM-19">
          <mxGeometry relative="1" as="geometry" />
        </mxCell>
        <mxCell id="bp6A0f7yTUswZNlAv2UM-21" value="否" style="edgeLabel;html=1;align=center;verticalAlign=middle;resizable=0;points=[];" vertex="1" connectable="0" parent="bp6A0f7yTUswZNlAv2UM-20">
          <mxGeometry y="1" relative="1" as="geometry">
            <mxPoint as="offset" />
          </mxGeometry>
        </mxCell>
        <mxCell id="bp6A0f7yTUswZNlAv2UM-9" value="手机号是否注册" style="rhombus;whiteSpace=wrap;html=1;rounded=1;" vertex="1" parent="bp6A0f7yTUswZNlAv2UM-1">
          <mxGeometry x="510" y="200" width="120" height="80" as="geometry" />
        </mxCell>
        <mxCell id="bp6A0f7yTUswZNlAv2UM-38" value="" style="edgeStyle=orthogonalEdgeStyle;rounded=0;orthogonalLoop=1;jettySize=auto;html=1;" edge="1" parent="bp6A0f7yTUswZNlAv2UM-1" source="bp6A0f7yTUswZNlAv2UM-12" target="bp6A0f7yTUswZNlAv2UM-37">
          <mxGeometry relative="1" as="geometry" />
        </mxCell>
        <mxCell id="bp6A0f7yTUswZNlAv2UM-39" value="是" style="edgeLabel;html=1;align=center;verticalAlign=middle;resizable=0;points=[];" vertex="1" connectable="0" parent="bp6A0f7yTUswZNlAv2UM-38">
          <mxGeometry x="-0.2" y="-2" relative="1" as="geometry">
            <mxPoint as="offset" />
          </mxGeometry>
        </mxCell>
        <mxCell id="bp6A0f7yTUswZNlAv2UM-43" style="edgeStyle=orthogonalEdgeStyle;rounded=0;orthogonalLoop=1;jettySize=auto;html=1;exitX=0.5;exitY=1;exitDx=0;exitDy=0;entryX=0.5;entryY=0;entryDx=0;entryDy=0;" edge="1" parent="bp6A0f7yTUswZNlAv2UM-1" source="bp6A0f7yTUswZNlAv2UM-12" target="bp6A0f7yTUswZNlAv2UM-28">
          <mxGeometry relative="1" as="geometry">
            <mxPoint x="570" y="354" as="targetPoint" />
            <Array as="points">
              <mxPoint x="400" y="300" />
              <mxPoint x="570" y="300" />
            </Array>
          </mxGeometry>
        </mxCell>
        <mxCell id="bp6A0f7yTUswZNlAv2UM-44" value="否" style="edgeLabel;html=1;align=center;verticalAlign=middle;resizable=0;points=[];" vertex="1" connectable="0" parent="bp6A0f7yTUswZNlAv2UM-43">
          <mxGeometry x="-0.3429" relative="1" as="geometry">
            <mxPoint as="offset" />
          </mxGeometry>
        </mxCell>
        <mxCell id="bp6A0f7yTUswZNlAv2UM-12" value="是否已加入当前组织" style="rhombus;whiteSpace=wrap;html=1;rounded=1;" vertex="1" parent="bp6A0f7yTUswZNlAv2UM-1">
          <mxGeometry x="340" y="200" width="120" height="80" as="geometry" />
        </mxCell>
        <mxCell id="bp6A0f7yTUswZNlAv2UM-23" value="" style="edgeStyle=orthogonalEdgeStyle;rounded=0;orthogonalLoop=1;jettySize=auto;html=1;" edge="1" parent="bp6A0f7yTUswZNlAv2UM-1" source="bp6A0f7yTUswZNlAv2UM-19" target="bp6A0f7yTUswZNlAv2UM-22">
          <mxGeometry relative="1" as="geometry" />
        </mxCell>
        <mxCell id="bp6A0f7yTUswZNlAv2UM-19" value="注册&lt;br&gt;(添加人员)" style="rounded=0;whiteSpace=wrap;html=1;" vertex="1" parent="bp6A0f7yTUswZNlAv2UM-1">
          <mxGeometry x="680" y="210" width="120" height="60" as="geometry" />
        </mxCell>
        <mxCell id="bp6A0f7yTUswZNlAv2UM-27" style="edgeStyle=orthogonalEdgeStyle;rounded=0;orthogonalLoop=1;jettySize=auto;html=1;" edge="1" parent="bp6A0f7yTUswZNlAv2UM-1" source="bp6A0f7yTUswZNlAv2UM-22" target="bp6A0f7yTUswZNlAv2UM-26">
          <mxGeometry relative="1" as="geometry" />
        </mxCell>
        <mxCell id="bp6A0f7yTUswZNlAv2UM-22" value="写入手机号登录" style="rounded=0;whiteSpace=wrap;html=1;" vertex="1" parent="bp6A0f7yTUswZNlAv2UM-1">
          <mxGeometry x="680" y="350" width="120" height="60" as="geometry" />
        </mxCell>
        <mxCell id="bp6A0f7yTUswZNlAv2UM-29" style="edgeStyle=orthogonalEdgeStyle;rounded=0;orthogonalLoop=1;jettySize=auto;html=1;entryX=0.5;entryY=0;entryDx=0;entryDy=0;" edge="1" parent="bp6A0f7yTUswZNlAv2UM-1" source="bp6A0f7yTUswZNlAv2UM-26" target="bp6A0f7yTUswZNlAv2UM-28">
          <mxGeometry relative="1" as="geometry" />
        </mxCell>
        <mxCell id="bp6A0f7yTUswZNlAv2UM-46" value="是" style="edgeLabel;html=1;align=center;verticalAlign=middle;resizable=0;points=[];" vertex="1" connectable="0" parent="bp6A0f7yTUswZNlAv2UM-29">
          <mxGeometry x="-0.3625" y="-2" relative="1" as="geometry">
            <mxPoint as="offset" />
          </mxGeometry>
        </mxCell>
        <mxCell id="bp6A0f7yTUswZNlAv2UM-31" style="edgeStyle=orthogonalEdgeStyle;rounded=0;orthogonalLoop=1;jettySize=auto;html=1;entryX=0;entryY=0.5;entryDx=0;entryDy=0;" edge="1" parent="bp6A0f7yTUswZNlAv2UM-1" source="bp6A0f7yTUswZNlAv2UM-26" target="bp6A0f7yTUswZNlAv2UM-30">
          <mxGeometry relative="1" as="geometry" />
        </mxCell>
        <mxCell id="bp6A0f7yTUswZNlAv2UM-45" value="否" style="edgeLabel;html=1;align=center;verticalAlign=middle;resizable=0;points=[];" vertex="1" connectable="0" parent="bp6A0f7yTUswZNlAv2UM-31">
          <mxGeometry x="-0.44" y="-1" relative="1" as="geometry">
            <mxPoint as="offset" />
          </mxGeometry>
        </mxCell>
        <mxCell id="bp6A0f7yTUswZNlAv2UM-26" value="是否填写邮箱" style="rhombus;whiteSpace=wrap;html=1;rounded=1;" vertex="1" parent="bp6A0f7yTUswZNlAv2UM-1">
          <mxGeometry x="680" y="500" width="120" height="80" as="geometry" />
        </mxCell>
        <mxCell id="bp6A0f7yTUswZNlAv2UM-34" style="edgeStyle=orthogonalEdgeStyle;rounded=0;orthogonalLoop=1;jettySize=auto;html=1;" edge="1" parent="bp6A0f7yTUswZNlAv2UM-1" source="bp6A0f7yTUswZNlAv2UM-28" target="bp6A0f7yTUswZNlAv2UM-33">
          <mxGeometry relative="1" as="geometry" />
        </mxCell>
        <mxCell id="bp6A0f7yTUswZNlAv2UM-28" value="加入组织" style="rounded=0;whiteSpace=wrap;html=1;" vertex="1" parent="bp6A0f7yTUswZNlAv2UM-1">
          <mxGeometry x="510" y="590" width="120" height="60" as="geometry" />
        </mxCell>
        <mxCell id="bp6A0f7yTUswZNlAv2UM-32" style="edgeStyle=orthogonalEdgeStyle;rounded=0;orthogonalLoop=1;jettySize=auto;html=1;entryX=1;entryY=0.5;entryDx=0;entryDy=0;exitX=0.5;exitY=1;exitDx=0;exitDy=0;" edge="1" parent="bp6A0f7yTUswZNlAv2UM-1" source="bp6A0f7yTUswZNlAv2UM-30" target="bp6A0f7yTUswZNlAv2UM-28">
          <mxGeometry relative="1" as="geometry" />
        </mxCell>
        <mxCell id="bp6A0f7yTUswZNlAv2UM-30" value="写入邮箱登录" style="rounded=0;whiteSpace=wrap;html=1;" vertex="1" parent="bp6A0f7yTUswZNlAv2UM-1">
          <mxGeometry x="850" y="510" width="120" height="60" as="geometry" />
        </mxCell>
        <mxCell id="bp6A0f7yTUswZNlAv2UM-36" value="" style="edgeStyle=orthogonalEdgeStyle;rounded=0;orthogonalLoop=1;jettySize=auto;html=1;" edge="1" parent="bp6A0f7yTUswZNlAv2UM-1" source="bp6A0f7yTUswZNlAv2UM-33" target="bp6A0f7yTUswZNlAv2UM-35">
          <mxGeometry relative="1" as="geometry" />
        </mxCell>
        <mxCell id="bp6A0f7yTUswZNlAv2UM-33" value="关联所在部门" style="rounded=0;whiteSpace=wrap;html=1;" vertex="1" parent="bp6A0f7yTUswZNlAv2UM-1">
          <mxGeometry x="510" y="730" width="120" height="60" as="geometry" />
        </mxCell>
        <mxCell id="bp6A0f7yTUswZNlAv2UM-35" value="关联角色" style="rounded=0;whiteSpace=wrap;html=1;" vertex="1" parent="bp6A0f7yTUswZNlAv2UM-1">
          <mxGeometry x="510" y="870" width="120" height="60" as="geometry" />
        </mxCell>
        <mxCell id="bp6A0f7yTUswZNlAv2UM-37" value="返回错误结果&lt;br&gt;（当前组织已存在）" style="whiteSpace=wrap;html=1;rounded=1;" vertex="1" parent="bp6A0f7yTUswZNlAv2UM-1">
          <mxGeometry x="340" y="354" width="120" height="60" as="geometry" />
        </mxCell>
      </root>
    </mxGraphModel>
  </diagram>
</mxfile>
